<svg xmlns="http://www.w3.org/2000/svg" width="640" height="320" viewBox="0 0 640 320" preserveAspectRatio="xMidYMid meet" role="img" aria-labelledby="title desc">
  <title id="title">ERC-TRUST mobile project banner</title>
  <desc id="desc">Mobile project banner for the independent ERC-TRUST pre-ERC candidate, with its project mark and full name.</desc>
  <defs>
    <linearGradient id="bg" x1="0" y1="0" x2="1" y2="1">
      <stop offset="0" stop-color="#05131d"/>
      <stop offset=".62" stop-color="#092330"/>
      <stop offset="1" stop-color="#0b2c39"/>
    </linearGradient>
    <linearGradient id="field-a" x1="80" y1="80" x2="170" y2="150" gradientUnits="userSpaceOnUse">
      <stop offset="0" stop-color="#7ae6d4"/>
      <stop offset="1" stop-color="#2fa9b6"/>
    </linearGradient>
    <linearGradient id="field-b" x1="190" y1="190" x2="95" y2="100" gradientUnits="userSpaceOnUse">
      <stop offset="0" stop-color="#76a7ef"/>
      <stop offset="1" stop-color="#3d6fbd"/>
    </linearGradient>
    <pattern id="grid" width="32" height="32" patternUnits="userSpaceOnUse">
      <path d="M32 0H0v32" fill="none" stroke="#9ac6cb" stroke-width="1" opacity=".04"/>
    </pattern>
  </defs>
  <rect width="640" height="320" rx="24" fill="url(#bg)"/>
  <rect width="640" height="320" rx="24" fill="url(#grid)"/>
  <path d="M28 72V28h44M568 28h44v44M28 248v44h44M568 292h44v-44" fill="none" stroke="#8fc7cb" stroke-width="2" opacity=".16"/>

  <g transform="translate(36 53) scale(.85)">
    <circle cx="126" cy="126" r="112" fill="#06151f" stroke="#70d7c7" stroke-width="2" opacity=".9"/>
    <circle cx="126" cy="126" r="96" fill="#09202b" stroke="#2b5262" stroke-width="2"/>
    <circle cx="126" cy="126" r="82" fill="none" stroke="#72dccb" stroke-width="2" stroke-dasharray="2 10" opacity=".62"/>
    <g fill="none" stroke-width="11" stroke-linecap="round" stroke-linejoin="round">
      <path d="M55 78h24c16 0 24 18 38 31M45 126h66M55 174h24c16 0 24-18 38-31" stroke="url(#field-a)"/>
      <path d="M197 78h-24c-16 0-24 18-38 31M207 126h-66M197 174h-24c-16 0-24-18-38-31" stroke="url(#field-b)"/>
    </g>
    <g fill="#bcebe4" stroke="#09202b" stroke-width="4"><circle cx="55" cy="78" r="8"/><circle cx="45" cy="126" r="8"/><circle cx="55" cy="174" r="8"/></g>
    <g fill="#79a4df" stroke="#09202b" stroke-width="4"><circle cx="197" cy="78" r="8"/><circle cx="207" cy="126" r="8"/><circle cx="197" cy="174" r="8"/></g>
    <circle cx="126" cy="126" r="43" fill="#061923" stroke="#b7d7d7" stroke-width="3"/>
    <path d="m126 100 23 13v26l-23 13-23-13v-26Z" fill="#0d2c39" stroke="#e2eeed" stroke-width="3"/>
    <circle cx="126" cy="126" r="6" fill="#e5f7f3"/>
  </g>

  <g font-family="Inter,Segoe UI,Arial,sans-serif">
    <text x="290" y="70" fill="#78c9c3" font-size="13" font-weight="700" letter-spacing="2.1">INDEPENDENT PRE-ERC CANDIDATE</text>
    <text x="286" y="137" fill="#f1f5f4" font-size="52" font-weight="800" letter-spacing="1">ERC-TRUST</text>
    <rect x="290" y="158" width="64" height="5" rx="2.5" fill="#67d8c6"/>
    <text x="290" y="204" fill="#c1dada" font-size="19" font-weight="650" letter-spacing=".55">TYPED REGULATORY</text>
    <text x="290" y="233" fill="#c1dada" font-size="19" font-weight="650" letter-spacing=".55">UNIFORMITY FOR</text>
    <text x="290" y="262" fill="#c1dada" font-size="19" font-weight="650" letter-spacing=".55">SECURITY TOKENS</text>
  </g>
</svg>
